<svg xmlns="http://www.w3.org/2000/svg" viewBox="0 0 16 16" width="512" height="512" shape-rendering="crispEdges" role="img" aria-label="Nazar">
  <!-- Direction 04 - monochrome template. The deep-blue rim and the light-blue
       iris become white; the white band and the black pupil become holes, so
       the bead survives as ring / gap / ring / hole. -->
  <rect x="6" y="0" width="4" height="1" fill="#FFFFFF"/>
  <rect x="4" y="1" width="8" height="1" fill="#FFFFFF"/>
  <rect x="2" y="2" width="4" height="1" fill="#FFFFFF"/>
  <rect x="10" y="2" width="4" height="1" fill="#FFFFFF"/>
  <rect x="2" y="3" width="2" height="1" fill="#FFFFFF"/>
  <rect x="12" y="3" width="2" height="1" fill="#FFFFFF"/>
  <rect x="1" y="4" width="2" height="1" fill="#FFFFFF"/>
  <rect x="7" y="4" width="2" height="1" fill="#FFFFFF"/>
  <rect x="13" y="4" width="2" height="1" fill="#FFFFFF"/>
  <rect x="1" y="5" width="2" height="1" fill="#FFFFFF"/>
  <rect x="5" y="5" width="6" height="1" fill="#FFFFFF"/>
  <rect x="13" y="5" width="2" height="1" fill="#FFFFFF"/>
  <rect x="0" y="6" width="2" height="1" fill="#FFFFFF"/>
  <rect x="5" y="6" width="6" height="1" fill="#FFFFFF"/>
  <rect x="14" y="6" width="2" height="1" fill="#FFFFFF"/>
  <rect x="0" y="7" width="2" height="1" fill="#FFFFFF"/>
  <rect x="4" y="7" width="3" height="1" fill="#FFFFFF"/>
  <rect x="9" y="7" width="3" height="1" fill="#FFFFFF"/>
  <rect x="14" y="7" width="2" height="1" fill="#FFFFFF"/>
  <rect x="0" y="8" width="2" height="1" fill="#FFFFFF"/>
  <rect x="4" y="8" width="3" height="1" fill="#FFFFFF"/>
  <rect x="9" y="8" width="3" height="1" fill="#FFFFFF"/>
  <rect x="14" y="8" width="2" height="1" fill="#FFFFFF"/>
  <rect x="0" y="9" width="2" height="1" fill="#FFFFFF"/>
  <rect x="5" y="9" width="6" height="1" fill="#FFFFFF"/>
  <rect x="14" y="9" width="2" height="1" fill="#FFFFFF"/>
  <rect x="1" y="10" width="2" height="1" fill="#FFFFFF"/>
  <rect x="5" y="10" width="6" height="1" fill="#FFFFFF"/>
  <rect x="13" y="10" width="2" height="1" fill="#FFFFFF"/>
  <rect x="1" y="11" width="2" height="1" fill="#FFFFFF"/>
  <rect x="7" y="11" width="2" height="1" fill="#FFFFFF"/>
  <rect x="13" y="11" width="2" height="1" fill="#FFFFFF"/>
  <rect x="2" y="12" width="2" height="1" fill="#FFFFFF"/>
  <rect x="12" y="12" width="2" height="1" fill="#FFFFFF"/>
  <rect x="2" y="13" width="4" height="1" fill="#FFFFFF"/>
  <rect x="10" y="13" width="4" height="1" fill="#FFFFFF"/>
  <rect x="4" y="14" width="8" height="1" fill="#FFFFFF"/>
  <rect x="6" y="15" width="4" height="1" fill="#FFFFFF"/>
</svg>
